<svg width="50" height="50" viewBox="0 0 50 50" fill="none" xmlns="http://www.w3.org/2000/svg">
<path d="M23.4885 14.8485L23.4882 14.8482L20.9288 12.1154L20.9285 12.1151C20.3956 11.5451 20.4233 10.6497 20.9945 10.1148C21.5656 9.58001 22.4607 9.61 22.9951 10.1804L22.9952 10.1805L24.5628 11.8541L28.3878 8.09281L28.388 8.09264C28.9458 7.54461 29.8408 7.5524 30.3893 8.10932C30.9386 8.66687 30.9304 9.56371 30.3723 10.1118L25.5145 14.8894C25.5144 14.8894 25.5144 14.8895 25.5144 14.8895L25.5142 14.8897L25.1636 14.5332C24.9926 14.7017 24.7616 14.7962 24.5215 14.7962L23.4885 14.8485ZM23.4885 14.8485C23.7492 15.1265 24.1107 15.2877 24.4914 15.2959V15.2959L24.4953 15.2959L24.5051 15.296L24.5083 15.296L23.4885 14.8485ZM45.6886 41.412L45.6888 47.9375H32.7112V43.0303V43.0229V42.5333V41.4119C32.7112 39.1865 33.8366 37.1383 35.6852 35.9351C36.6918 36.6094 37.9014 37.0033 39.1999 37.0033C40.4986 37.0032 41.7083 36.6093 42.715 35.9348C44.5668 37.1352 45.6886 39.1705 45.6886 41.412ZM17.2871 42.5333L17.2871 42.6771C17.2818 42.7916 17.2789 42.9069 17.2789 43.023L17.279 47.9375H4.31055V41.4119C4.31055 39.1702 5.4317 37.1352 7.28411 35.9347C8.2908 36.6092 9.50059 37.0033 10.7993 37.0033C12.0976 37.0032 13.3072 36.6095 14.3131 35.9351C16.1624 37.1383 17.287 39.1865 17.287 41.412L17.2871 42.5333ZM39.2 27.0971C41.1347 27.0971 42.7142 28.6817 42.7142 30.6347C42.7142 32.5875 41.1347 34.1722 39.2 34.1722C37.2653 34.1721 35.6858 32.5875 35.6858 30.6347C35.6859 28.6817 37.2652 27.0972 39.2 27.0971ZM24.9955 31.8994C26.3778 31.8994 27.5098 33.0333 27.5098 34.4321C27.5098 35.8308 26.3778 36.9647 24.9955 36.9647C23.6123 36.9647 22.4813 35.8311 22.4813 34.4321C22.4814 33.0332 23.6124 31.8995 24.9955 31.8994ZM20.1101 43.0229C20.1101 41.4086 20.8967 39.918 22.1989 39.0005C23.0125 39.5038 23.9707 39.7959 24.9955 39.7959C26.0199 39.7958 26.9781 39.5038 27.7918 39.0003C29.0965 39.915 29.88 41.3963 29.88 43.0229L29.8802 47.9375H20.1101V43.0229ZM10.7993 27.0971C12.734 27.0971 14.3135 28.6817 14.3135 30.6347C14.3136 32.5875 12.734 34.1722 10.7993 34.1722C8.8646 34.1721 7.28506 32.5875 7.28506 30.6347C7.28506 28.6817 8.86451 27.0972 10.7993 27.0971ZM24.9955 2.12438L33.0558 6.25647C33.0251 12.5265 30 18.4641 24.9955 22.1045C19.9901 18.464 16.9649 12.5266 16.9351 6.25669L24.9955 2.12438Z" stroke="#043570"/>
</svg>
