<svg width="20" height="20" viewBox="0 0 20 20" fill="none" xmlns="http://www.w3.org/2000/svg">
<path d="M19.0906 3.5999H17.6656V2.99053C17.6656 2.50303 17.2687 2.10303 16.7781 2.10303C16.2906 2.10303 15.8906 2.4999 15.8906 2.99053V3.5999H13.1438V2.99053C13.1438 2.50303 12.7469 2.10303 12.2563 2.10303C11.7656 2.10303 11.375 2.50303 11.375 2.99053V3.5999H8.62813V2.99053C8.62813 2.50303 8.23125 2.10303 7.74063 2.10303C7.25313 2.10303 6.85313 2.4999 6.85313 2.99053V3.5999H4.10625V2.99053C4.10625 2.50303 3.70938 2.10303 3.21875 2.10303C2.73125 2.10303 2.33125 2.4999 2.33125 2.99053V3.5999H0.909375C0.409375 3.5999 0 4.00615 0 4.50928V16.9843C0 17.4843 0.40625 17.8937 0.909375 17.8937H19.0906C19.5906 17.8937 20 17.4843 20 16.9843V4.50928C20 4.00928 19.5938 3.5999 19.0906 3.5999ZM16.5 2.99053C16.5 2.8374 16.625 2.70928 16.7812 2.70928C16.9344 2.70928 17.0625 2.83428 17.0625 2.99053V4.48115C17.0625 4.63428 16.9375 4.7624 16.7812 4.7624C16.6281 4.7624 16.5 4.6374 16.5 4.48115V2.99053ZM12.2625 2.70928C12.4156 2.70928 12.5437 2.83428 12.5437 2.99053V4.48115C12.5437 4.63428 12.4188 4.7624 12.2625 4.7624C12.1094 4.7624 11.9812 4.6374 11.9812 4.48115V3.90928C11.9812 3.90615 11.9812 3.90615 11.9812 3.90615C11.9812 3.90303 11.9812 3.90303 11.9812 3.90303V2.99053C11.9812 2.8374 12.1063 2.70928 12.2625 2.70928ZM7.4625 2.99053C7.4625 2.8374 7.5875 2.70928 7.74375 2.70928C7.89688 2.70928 8.025 2.83428 8.025 2.99053V3.8999V3.90303V3.90615V4.47803C8.025 4.63115 7.9 4.75928 7.74375 4.75928C7.59063 4.75928 7.4625 4.63428 7.4625 4.47803V2.99053ZM2.94375 2.99053C2.94375 2.8374 3.06875 2.70928 3.225 2.70928C3.38125 2.70928 3.50625 2.83428 3.50625 2.99053V4.48115C3.50625 4.63428 3.38125 4.7624 3.225 4.7624C3.06875 4.7624 2.94375 4.6374 2.94375 4.48115V2.99053ZM0.909375 4.20615H2.3375V4.48115C2.3375 4.96865 2.73438 5.36865 3.225 5.36865C3.7125 5.36865 4.1125 4.97178 4.1125 4.48115V4.20615H6.85938V4.48115C6.85938 4.96865 7.25625 5.36865 7.74688 5.36865C8.23438 5.36865 8.63437 4.97178 8.63437 4.48115V4.20615H11.3812V4.48115C11.3812 4.96865 11.7781 5.36865 12.2687 5.36865C12.7594 5.36865 13.1562 4.97178 13.1562 4.48115V4.20615H15.9031V4.48115C15.9031 4.96865 16.3 5.36865 16.7906 5.36865C17.2781 5.36865 17.6781 4.97178 17.6781 4.48115V4.20615H19.1031C19.2688 4.20615 19.4062 4.34365 19.4062 4.50928V6.5749H0.60625V4.50928C0.60625 4.34365 0.740625 4.20615 0.909375 4.20615ZM19.0906 17.2905H0.909375C0.740625 17.2905 0.60625 17.153 0.60625 16.9874V7.18115H19.3938V16.9874C19.3938 17.1562 19.2594 17.2905 19.0906 17.2905Z" fill="#96949C"/>
<path d="M6.30308 8.03418H1.87808C1.70933 8.03418 1.57495 8.16856 1.57495 8.33731V11.5779C1.57495 11.7467 1.70933 11.8811 1.87808 11.8811H6.30308C6.47183 11.8811 6.6062 11.7467 6.6062 11.5779V8.33731C6.6062 8.17168 6.47183 8.03418 6.30308 8.03418ZM5.99995 11.2779H2.1812V8.64043H5.99995V11.2779Z" fill="#96949C"/>
<path d="M3.57808 10.7719C3.63745 10.8313 3.71558 10.8594 3.7937 10.8594C3.87183 10.8594 3.94995 10.8313 4.00933 10.7719L5.20933 9.57187C5.32808 9.45312 5.32808 9.2625 5.20933 9.14375C5.09058 9.025 4.89995 9.025 4.7812 9.14375L3.79683 10.1281L3.41245 9.74375C3.2937 9.625 3.10308 9.625 2.98433 9.74375C2.86558 9.8625 2.86558 10.0531 2.98433 10.1719L3.57808 10.7719Z" fill="#96949C"/>
<path d="M18.1219 8.03418H13.6969C13.5282 8.03418 13.3938 8.16856 13.3938 8.33731V11.5779C13.3938 11.7467 13.5282 11.8811 13.6969 11.8811H18.1219C18.2907 11.8811 18.425 11.7467 18.425 11.5779V8.33731C18.425 8.17168 18.2875 8.03418 18.1219 8.03418ZM17.8188 11.2779H14V8.64043H17.8188V11.2779Z" fill="#96949C"/>
<path d="M15.3937 10.7719C15.4531 10.8313 15.5313 10.8594 15.6094 10.8594C15.6875 10.8594 15.7656 10.8313 15.825 10.7719L17.025 9.57187C17.1437 9.45312 17.1437 9.2625 17.025 9.14375C16.9062 9.025 16.7156 9.025 16.5969 9.14375L15.6125 10.1281L15.2281 9.74375C15.1094 9.625 14.9188 9.625 14.8 9.74375C14.6813 9.8625 14.6813 10.0531 14.8 10.1719L15.3937 10.7719Z" fill="#96949C"/>
<path d="M12.2125 8.03418H7.7875C7.61875 8.03418 7.48438 8.16856 7.48438 8.33731V11.5779C7.48438 11.7467 7.61875 11.8811 7.7875 11.8811H12.2125C12.3813 11.8811 12.5156 11.7467 12.5156 11.5779V8.33731C12.5156 8.17168 12.3813 8.03418 12.2125 8.03418ZM11.9094 11.2779H8.09062V8.64043H11.9094V11.2779Z" fill="#96949C"/>
<path d="M9.18435 10.7717C9.24373 10.8311 9.32185 10.8592 9.39998 10.8592C9.4781 10.8592 9.55623 10.8311 9.6156 10.7717L9.99998 10.3873L10.3844 10.7717C10.4437 10.8311 10.5219 10.8592 10.6 10.8592C10.6781 10.8592 10.7562 10.8311 10.8156 10.7717C10.9344 10.6529 10.9344 10.4623 10.8156 10.3436L10.4312 9.95918L10.8156 9.5748C10.9344 9.45605 10.9344 9.26543 10.8156 9.14668C10.6969 9.02793 10.5062 9.02793 10.3875 9.14668L9.99998 9.53105L9.6156 9.14668C9.49685 9.02793 9.30623 9.02793 9.18748 9.14668C9.06873 9.26543 9.06873 9.45605 9.18748 9.5748L9.57185 9.95918L9.18748 10.3436C9.06873 10.4623 9.06873 10.6529 9.18435 10.7717Z" fill="#96949C"/>
<path d="M6.30308 12.5874H1.87808C1.70933 12.5874 1.57495 12.7218 1.57495 12.8905V16.1312C1.57495 16.2999 1.70933 16.4343 1.87808 16.4343H6.30308C6.47183 16.4343 6.6062 16.2999 6.6062 16.1312V12.8905C6.6062 12.7249 6.47183 12.5874 6.30308 12.5874ZM5.99995 15.8312H2.1812V13.1937H5.99995V15.8312Z" fill="#96949C"/>
<path d="M3.57808 15.3249C3.63433 15.3811 3.71245 15.4124 3.7937 15.4124C3.87495 15.4124 3.94995 15.3811 4.00933 15.3249L5.20933 14.1249C5.32808 14.0061 5.32808 13.8155 5.20933 13.6967C5.09058 13.578 4.89995 13.578 4.7812 13.6967L3.79683 14.6811L3.41245 14.2967C3.2937 14.178 3.10308 14.178 2.98433 14.2967C2.86558 14.4155 2.86558 14.6061 2.98433 14.7249L3.57808 15.3249Z" fill="#96949C"/>
<path d="M12.2125 12.5874H7.7875C7.61875 12.5874 7.48438 12.7218 7.48438 12.8905V16.1312C7.48438 16.2999 7.61875 16.4343 7.7875 16.4343H12.2125C12.3813 16.4343 12.5156 16.2999 12.5156 16.1312V12.8905C12.5156 12.7249 12.3813 12.5874 12.2125 12.5874ZM11.9094 15.8312H8.09062V13.1937H11.9094V15.8312Z" fill="#96949C"/>
<path d="M9.4875 15.3249C9.54375 15.3811 9.62188 15.4124 9.70313 15.4124C9.78438 15.4124 9.85938 15.3811 9.91875 15.3249L11.1188 14.1249C11.2375 14.0061 11.2375 13.8155 11.1188 13.6967C11 13.578 10.8094 13.578 10.6906 13.6967L9.70625 14.6811L9.32188 14.2967C9.20313 14.178 9.0125 14.178 8.89375 14.2967C8.775 14.4155 8.775 14.6061 8.89375 14.7249L9.4875 15.3249Z" fill="#96949C"/>
<path d="M18.1219 12.5874H13.6969C13.5282 12.5874 13.3938 12.7218 13.3938 12.8905V16.1312C13.3938 16.2999 13.5282 16.4343 13.6969 16.4343H18.1219C18.2907 16.4343 18.425 16.2999 18.425 16.1312V12.8905C18.425 12.7249 18.2875 12.5874 18.1219 12.5874ZM17.8188 15.8312H14V13.1937H17.8188V15.8312Z" fill="#96949C"/>
<path d="M15.0938 15.3249C15.1531 15.3843 15.2313 15.4124 15.3094 15.4124C15.3875 15.4124 15.4656 15.3843 15.525 15.3249L15.9094 14.9405L16.2938 15.3249C16.3531 15.3843 16.4313 15.4124 16.5094 15.4124C16.5875 15.4124 16.6656 15.3843 16.725 15.3249C16.8438 15.2062 16.8438 15.0155 16.725 14.8968L16.3406 14.5124L16.725 14.128C16.8438 14.0093 16.8438 13.8187 16.725 13.6999C16.6063 13.5812 16.4156 13.5812 16.2969 13.6999L15.9125 14.0843L15.5281 13.6999C15.4094 13.5812 15.2188 13.5812 15.1 13.6999C14.9813 13.8187 14.9813 14.0093 15.1 14.128L15.4844 14.5124L15.1 14.8968C14.9781 15.0155 14.9781 15.2062 15.0938 15.3249Z" fill="#96949C"/>
</svg>
