<svg width="101" height="100" viewBox="0 0 101 100" fill="none" xmlns="http://www.w3.org/2000/svg">
<g clip-path="url(#clip0_1577_2989)">
<path d="M50.5 100C78.1142 100 100.5 77.6142 100.5 50C100.5 22.3858 78.1142 0 50.5 0C22.8858 0 0.5 22.3858 0.5 50C0.5 77.6142 22.8858 100 50.5 100Z" fill="#043570"/>
<path d="M67.9129 46.3945L67.8855 46.3672L54.1043 32.5762C54.1043 32.5762 37.3074 49.373 29.2136 57.6348C28.2058 58.6621 27.4422 60.0918 26.989 61.4746C25.6609 65.5352 24.5613 69.6777 23.3386 73.7793C23.0105 74.8789 23.0769 75.8477 23.9382 76.668C24.7507 77.4492 25.6648 77.4766 26.7195 77.1602C30.6257 75.9883 34.5574 74.8731 38.4812 73.75C40.499 73.1652 42.328 72.0614 43.7859 70.5488C51.4968 62.791 67.9129 46.3945 67.9129 46.3945Z" fill="white"/>
<path d="M75.957 29.2598L71.2441 24.5469C70.0356 23.3393 68.397 22.6609 66.6885 22.6609C64.98 22.6609 63.3414 23.3393 62.1328 24.5469L56.791 29.8828L70.6172 43.7129L75.959 38.3711C77.1663 37.1623 77.8443 35.5235 77.8439 33.815C77.8436 32.1065 77.1649 30.4681 75.957 29.2598Z" fill="white"/>
</g>
<defs>
<clipPath id="clip0_1577_2989">
<rect width="100" height="100" fill="white" transform="translate(0.5)"/>
</clipPath>
</defs>
</svg>
