<svg width="20" height="20" viewBox="0 0 20 20" fill="none" xmlns="http://www.w3.org/2000/svg">
<g clip-path="url(#clip0_21_175)">
<path fill-rule="evenodd" clip-rule="evenodd" d="M14.751 19.6251H1.08963C0.492094 19.6251 0.0117188 19.1331 0.0117188 18.5355V1.46463C0.0117188 0.855375 0.492094 0.375 1.08963 0.375H14.751C15.3603 0.375 15.8407 0.855375 15.8407 1.46463V7.42831C15.8407 7.58062 15.7118 7.72122 15.5477 7.72122C15.3954 7.72122 15.2548 7.58062 15.2548 7.42831V1.46463C15.2548 1.17172 15.0322 0.93739 14.7393 0.93739H1.08963C0.808438 0.93739 0.574109 1.17172 0.574109 1.46463V18.5238C0.574109 18.805 0.808438 19.0393 1.08963 19.0393H14.751C15.0439 19.0393 15.2783 18.805 15.2783 18.5238V12.607C15.2783 12.443 15.4071 12.3141 15.5712 12.3141C15.7352 12.3141 15.8641 12.443 15.8641 12.607V18.5355C15.8407 19.1331 15.3603 19.6251 14.751 19.6251Z" fill="#96949C"/>
<path fill-rule="evenodd" clip-rule="evenodd" d="M13.7318 2.81214H3.10492C2.95261 2.81214 2.81201 2.68326 2.81201 2.53095C2.81201 2.39035 2.95261 2.23804 3.10492 2.23804H13.7318C13.8958 2.23804 14.0247 2.36692 14.0247 2.53095C14.0247 2.69498 13.8958 2.81214 13.7318 2.81214Z" fill="#96949C"/>
<path fill-rule="evenodd" clip-rule="evenodd" d="M13.7318 5.29603H11.0721C10.9081 5.29603 10.7792 5.16715 10.7792 5.00312C10.7792 4.83909 10.9198 4.72192 11.0721 4.72192H13.7318C13.8958 4.72192 14.0247 4.86252 14.0247 5.01484C14.0247 5.17887 13.8958 5.29603 13.7318 5.29603ZM8.63509 5.29603H3.10492C2.95261 5.29603 2.81201 5.16715 2.81201 5.00312C2.81201 4.83909 2.95261 4.72192 3.10492 4.72192H8.63509C8.79912 4.72192 8.928 4.86252 8.928 5.01484C8.928 5.17887 8.77569 5.29603 8.63509 5.29603Z" fill="#96949C"/>
<path fill-rule="evenodd" clip-rule="evenodd" d="M13.7318 7.77991H9.02174C8.85771 7.77991 8.72883 7.65103 8.72883 7.487C8.72883 7.32297 8.85771 7.19409 9.02174 7.19409H13.7552C13.9075 7.19409 14.0364 7.32297 14.0364 7.487C14.0364 7.65103 13.8958 7.77991 13.7318 7.77991ZM6.573 7.77991H3.10492C2.95261 7.77991 2.81201 7.65103 2.81201 7.487C2.81201 7.32297 2.95261 7.19409 3.10492 7.19409H6.573C6.73703 7.19409 6.86591 7.32297 6.86591 7.487C6.86591 7.65103 6.73703 7.77991 6.573 7.77991Z" fill="#96949C"/>
<path fill-rule="evenodd" clip-rule="evenodd" d="M13.7318 10.2872H3.10492C2.95261 10.2872 2.81201 10.1584 2.81201 9.99433C2.81201 9.8303 2.95261 9.70142 3.10492 9.70142H13.7318C13.8958 9.70142 14.0247 9.8303 14.0247 9.99433C14.0247 10.1584 13.8958 10.2872 13.7318 10.2872Z" fill="#96949C"/>
<path fill-rule="evenodd" clip-rule="evenodd" d="M13.5677 12.7711H6.84247C6.67844 12.7711 6.54956 12.6422 6.54956 12.4782C6.54956 12.3142 6.70188 12.197 6.84247 12.197H13.556C13.72 12.197 13.8489 12.3259 13.8489 12.4899C13.8489 12.654 13.72 12.7711 13.5677 12.7711ZM4.42888 12.7711H3.10492C2.95261 12.7711 2.81201 12.6422 2.81201 12.4782C2.81201 12.3142 2.95261 12.197 3.10492 12.197H4.42888C4.59291 12.197 4.72179 12.3259 4.72179 12.4899C4.72179 12.654 4.56948 12.7711 4.42888 12.7711Z" fill="#96949C"/>
<path fill-rule="evenodd" clip-rule="evenodd" d="M12.5601 15.2667H9.52554C9.36151 15.2667 9.23263 15.1379 9.23263 14.9738C9.23263 14.8098 9.36151 14.6809 9.52554 14.6809H12.5601C12.7241 14.6809 12.853 14.8098 12.853 14.9738C12.853 15.1379 12.7241 15.2667 12.5601 15.2667ZM7.08852 15.2667H3.10492C2.95261 15.2667 2.81201 15.1379 2.81201 14.9738C2.81201 14.8098 2.95261 14.6809 3.10492 14.6809H7.08852C7.25255 14.6809 7.38143 14.8098 7.38143 14.9738C7.38143 15.1379 7.24083 15.2667 7.08852 15.2667Z" fill="#96949C"/>
<path fill-rule="evenodd" clip-rule="evenodd" d="M13.7318 17.7506H3.10492C2.95261 17.7506 2.81201 17.6217 2.81201 17.4577C2.81201 17.3054 2.95261 17.1648 3.10492 17.1648H13.7318C13.8958 17.1648 14.0247 17.3054 14.0247 17.4577C14.0247 17.6217 13.8958 17.7506 13.7318 17.7506Z" fill="#96949C"/>
<path fill-rule="evenodd" clip-rule="evenodd" d="M14.2823 16.1102C14.2589 16.1102 14.2237 16.1102 14.1886 16.0985L12.4194 15.3955C12.2671 15.3369 12.2085 15.1729 12.2554 15.0206L17.6098 1.47634C17.8558 0.843652 18.5705 0.539024 19.2032 0.78507C19.8359 1.04283 20.1523 1.75754 19.9062 2.36679L14.5401 15.9345C14.5167 16.0048 14.4698 16.0633 14.3995 16.0985C14.3526 16.1102 14.3175 16.1102 14.2823 16.1102ZM12.8881 14.9737L14.1183 15.4658L19.3907 2.1559C19.5196 1.81612 19.3556 1.44119 19.0158 1.30059C18.676 1.17171 18.2776 1.33574 18.1488 1.67552L12.8881 14.9737Z" fill="#96949C"/>
<path fill-rule="evenodd" clip-rule="evenodd" d="M12.6889 17.5397C12.6655 17.5397 12.6304 17.5397 12.5952 17.5279C12.5015 17.4928 12.4312 17.3991 12.4195 17.2819L12.2203 15.1729C12.2086 15.0792 12.2554 14.9738 12.3375 14.9152C12.4195 14.8449 12.5132 14.8449 12.6069 14.88L14.3878 15.583C14.4816 15.6064 14.5401 15.6885 14.5636 15.7939C14.5753 15.8876 14.5401 15.9814 14.4698 16.0517L12.8881 17.4576C12.8413 17.5162 12.771 17.5397 12.6889 17.5397ZM12.8413 15.583L12.935 16.6609L13.7551 15.9345L12.8413 15.583Z" fill="#96949C"/>
</g>
<defs>
<clipPath id="clip0_21_175">
<rect width="20" height="20" fill="white"/>
</clipPath>
</defs>
</svg>
