<svg width="20" height="20" viewBox="0 0 20 20" fill="none" xmlns="http://www.w3.org/2000/svg">
<g clip-path="url(#clip0_1388_1955)">
<path d="M7.5122 15.5396C7.23849 15.5396 7.0166 15.7615 7.0166 16.0351C7.0166 16.3088 7.23849 16.5307 7.5122 16.5307H12.4681C12.7418 16.5307 12.9637 16.3088 12.9637 16.0351C12.9637 15.7615 12.7418 15.5396 12.4681 15.5396H7.5122Z" fill="#96949C"/>
<path fill-rule="evenodd" clip-rule="evenodd" d="M12.1397 0.746277C10.8793 -0.248759 9.10073 -0.248759 7.84037 0.746277L1.39764 5.83265C0.564313 6.49054 0.078125 7.4938 0.078125 8.55552V16.5308C0.078125 18.4468 1.63132 20 3.54729 20H16.4328C18.3487 20 19.9019 18.4468 19.9019 16.5308V8.55552C19.9019 7.4938 19.4157 6.49054 18.5825 5.83265L12.1397 0.746277ZM8.45457 1.52424C9.35487 0.813499 10.6252 0.813499 11.5255 1.52424L17.9682 6.61061C18.5634 7.08053 18.9107 7.79715 18.9107 8.55552V16.5308C18.9107 17.8994 17.8013 19.0088 16.4328 19.0088H3.54729C2.17874 19.0088 1.06931 17.8994 1.06931 16.5308V8.55552C1.06931 7.79715 1.41659 7.08053 2.01183 6.61061L8.45457 1.52424Z" fill="#96949C"/>
</g>
<defs>
<clipPath id="clip0_1388_1955">
<rect width="20" height="20" fill="white"/>
</clipPath>
</defs>
</svg>
