<svg width="700" height="617" viewBox="0 0 700 617" fill="none" xmlns="http://www.w3.org/2000/svg">
<path d="M32.7584 615.086C26.6924 615.086 21.183 613.627 16.2208 610.699C11.2586 607.772 7.31376 603.827 4.38634 598.865C1.45891 593.903 0 588.393 0 582.327C0 577.941 0.940615 573.814 2.82185 569.936C4.70308 566.068 7.26577 562.671 10.5003 559.743C7.25617 556.816 4.70308 553.418 2.82185 549.55C0.940615 545.682 0 541.612 0 537.322C0 531.361 1.43972 525.987 4.30955 521.178C7.17939 516.369 11.0474 512.53 15.9137 509.66C20.7703 506.781 26.1261 505.351 31.9809 505.351H77.1304V525.104H34.486C32.2881 525.104 30.282 525.651 28.4488 526.754C26.6156 527.849 25.1567 529.317 24.0625 531.141C22.9683 532.974 22.4212 535.038 22.4212 537.332C22.4212 539.625 22.9683 541.545 24.0625 543.369C25.1567 545.202 26.6252 546.661 28.4488 547.755C30.2724 548.849 32.2881 549.406 34.486 549.406H71.8035V569.159H35.4266C33.0175 569.159 30.8291 569.764 28.8423 570.963C26.8555 572.163 25.291 573.756 24.1393 575.743C22.9875 577.73 22.4116 579.928 22.4116 582.327C22.4116 584.727 22.9875 586.925 24.1393 588.912C25.291 590.899 26.8555 592.463 28.8423 593.615C30.8291 594.767 33.0175 595.343 35.4266 595.343H77.1304V615.095H32.7584V615.086Z" fill="white"/>
<path d="M131.053 616.967C124.363 616.967 118.383 615.892 113.104 613.751C107.825 611.611 103.41 608.578 99.8588 604.662C96.3075 600.746 93.5913 596.149 91.71 590.86C89.8288 585.581 88.8882 579.803 88.8882 573.535C88.8882 565.598 90.4815 558.62 93.668 552.612C96.8546 546.603 101.347 541.871 107.153 538.425C112.951 534.98 119.717 533.252 127.453 533.252C130.794 533.252 134.009 533.722 137.1 534.663C140.181 535.604 142.983 536.967 145.488 538.742C147.993 540.518 150.038 542.61 151.602 545.01H151.756V500.638H173.236V573.535C173.236 582.318 171.509 589.977 168.063 596.504C164.617 603.04 159.751 608.079 153.483 611.63C147.216 615.182 139.739 616.957 131.062 616.957L131.053 616.967ZM131.053 598.625C135.333 598.625 139 597.579 142.023 595.486C145.056 593.394 147.379 590.572 149.001 587.021C150.623 583.469 151.429 579.496 151.429 575.109C151.429 570.723 150.614 566.75 149.001 563.198C147.379 559.647 145.056 556.825 142.023 554.733C138.99 552.64 135.333 551.594 131.053 551.594C126.772 551.594 123.24 552.64 120.159 554.733C117.078 556.825 114.726 559.647 113.104 563.198C111.482 566.75 110.676 570.723 110.676 575.109C110.676 579.496 111.482 583.469 113.104 587.021C114.726 590.572 117.078 593.394 120.159 595.486C123.24 597.579 126.878 598.625 131.053 598.625Z" fill="white"/>
<path d="M231.862 616.967C223.713 616.967 216.706 615.345 210.851 612.11C204.997 608.876 200.533 604.537 197.452 599.095C194.371 593.663 192.826 587.654 192.826 581.06V535.124H214.307V581.06C214.307 584.305 215.094 587.251 216.658 589.919C218.223 592.588 220.344 594.699 223.012 596.273C225.681 597.838 228.627 598.625 231.871 598.625C235.115 598.625 238.062 597.838 240.73 596.273C243.399 594.709 245.51 592.588 247.084 589.919C248.658 587.251 249.436 584.305 249.436 581.06V535.124H270.916V581.06C270.916 587.645 269.371 593.653 266.29 599.095C263.209 604.528 258.765 608.866 252.958 612.11C247.161 615.345 240.126 616.967 231.871 616.967H231.862Z" fill="white"/>
<path d="M335.185 616.967C330.377 616.967 326.067 615.844 322.247 613.598C318.427 611.352 315.634 607.829 313.858 603.011L281.09 505.341H306.017L332.517 593.768C332.728 594.497 333.064 595.025 333.534 595.333C334.005 595.64 334.552 595.803 335.185 595.803C335.819 595.803 336.366 595.649 336.836 595.333C337.306 595.016 337.642 594.497 337.854 593.768L365.285 505.341H389.117L356.503 602.857C354.833 607.56 352.059 611.083 348.191 613.444C344.323 615.796 339.984 616.967 335.176 616.967H335.185Z" fill="white"/>
<path d="M439.594 615.086C430.504 615.086 422.586 613.339 415.838 609.836C409.1 606.332 403.869 601.552 400.165 595.486C396.45 589.43 394.598 582.634 394.598 575.11C394.598 566.644 396.325 559.273 399.771 553.005C403.217 546.738 407.92 541.871 413.88 538.426C419.841 534.98 426.579 533.252 434.103 533.252C443.087 533.252 450.382 535.133 455.978 538.896C461.564 542.658 465.672 547.697 468.282 554.022C470.893 560.348 472.198 567.373 472.198 575.11C472.198 576.156 472.141 577.384 472.045 578.795C471.939 580.206 471.786 581.281 471.575 582.011H417.489C418.324 585.255 419.764 587.971 421.799 590.159C423.834 592.357 426.396 593.999 429.477 595.093C432.558 596.187 436.033 596.744 439.901 596.744H462.168V615.086H439.594ZM417.326 567.585H450.718C450.507 565.598 450.142 563.745 449.624 562.018C449.096 560.29 448.366 558.754 447.426 557.391C446.485 556.038 445.391 554.886 444.134 553.946C442.876 553.005 441.417 552.276 439.747 551.748C438.077 551.229 436.244 550.961 434.257 550.961C431.646 550.961 429.314 551.431 427.279 552.372C425.244 553.312 423.546 554.57 422.183 556.134C420.82 557.699 419.754 559.484 418.967 561.461C418.18 563.448 417.633 565.483 417.316 567.575L417.326 567.585Z" fill="white"/>
<path d="M486.624 615.086V557.862C486.624 550.759 488.64 545.192 492.661 541.171C496.683 537.149 502.25 535.133 509.362 535.133H531.467V553.475H513.125C511.762 553.475 510.591 553.946 509.602 554.886C508.604 555.827 508.114 557.027 508.114 558.495V615.095H486.634L486.624 615.086Z" fill="white"/>
<path d="M543.541 615.086V596.744H582.577C583.834 596.744 584.957 596.484 585.946 595.957C586.934 595.438 587.721 594.699 588.297 593.759C588.873 592.818 589.161 591.772 589.161 590.62C589.161 589.363 588.873 588.268 588.297 587.328C587.721 586.387 586.934 585.629 585.946 585.053C584.947 584.477 583.825 584.189 582.577 584.189H567.527C562.402 584.189 557.775 583.383 553.648 581.761C549.521 580.139 546.229 577.528 543.772 573.919C541.314 570.31 540.086 565.588 540.086 559.733C540.086 555.241 541.209 551.133 543.455 547.429C545.701 543.724 548.734 540.739 552.544 538.493C556.355 536.247 560.568 535.124 565.166 535.124H602.637V553.466H567.201C565.636 553.466 564.244 553.994 563.045 555.03C561.845 556.076 561.24 557.439 561.24 559.109C561.24 560.78 561.816 562.162 562.968 563.265C564.12 564.36 565.531 564.916 567.201 564.916H582.25C588 564.916 592.962 565.78 597.147 567.498C601.331 569.226 604.566 571.913 606.87 575.57C609.164 579.227 610.315 584.036 610.315 589.996C610.315 594.594 609.164 598.798 606.87 602.618C604.566 606.438 601.485 609.461 597.617 611.717C593.749 613.963 589.411 615.086 584.602 615.086H543.532H543.541Z" fill="white"/>
<path d="M667.395 615.086C658.306 615.086 650.387 613.339 643.64 609.836C636.902 606.332 631.671 601.552 627.966 595.486C624.252 589.43 622.399 582.634 622.399 575.11C622.399 566.644 624.127 559.273 627.573 553.005C631.018 546.738 635.721 541.871 641.682 538.426C647.642 534.98 654.38 533.252 661.905 533.252C670.889 533.252 678.183 535.133 683.779 538.896C689.365 542.658 693.473 547.697 696.084 554.022C698.695 560.348 700 567.373 700 575.11C700 576.156 699.942 577.384 699.846 578.795C699.741 580.206 699.587 581.281 699.376 582.011H645.291C646.126 585.255 647.565 587.971 649.6 590.159C651.635 592.357 654.198 593.999 657.279 595.093C660.36 596.187 663.834 596.744 667.702 596.744H689.97V615.086H667.395ZM645.128 567.585H678.519C678.308 565.598 677.943 563.745 677.425 562.018C676.897 560.29 676.168 558.754 675.227 557.391C674.287 556.038 673.192 554.886 671.935 553.946C670.678 553.005 669.219 552.276 667.549 551.748C665.879 551.229 664.045 550.961 662.059 550.961C659.448 550.961 657.116 551.431 655.081 552.372C653.046 553.312 651.347 554.57 649.984 556.134C648.621 557.699 647.556 559.484 646.769 561.461C645.982 563.448 645.435 565.483 645.118 567.575L645.128 567.585Z" fill="white"/>
<path d="M463.464 168.293V141.639C463.464 139.192 462.073 136.965 459.865 135.909C439.853 126.397 339.697 83.993 240.462 135.592C238.033 136.859 236.527 139.403 236.527 142.148V170.837C236.527 170.837 126.878 270.283 226.324 405.434C226.324 405.434 355.035 536.669 496.962 402.439C498.363 401.115 499.16 399.243 499.16 397.314V388.589C499.16 386.506 497.902 384.654 495.973 383.867C487.94 380.584 467.14 370.074 461.622 347.672C461.122 345.657 459.28 344.246 457.206 344.246H453.885C451.927 344.246 450.075 345.119 448.818 346.617C439.939 357.136 400.059 398.427 330.876 385.038C330.876 385.038 279.881 369.738 269.678 323.84H511.925C511.925 323.84 532.321 242.247 463.474 168.293H463.464ZM486.413 298.338H239.07C244.167 405.434 341.069 413.083 341.069 413.083C401.864 419.37 431.637 399.809 440.304 392.649C443.068 390.365 446.6 389.079 450.171 389.357C455.191 389.75 457.446 392.64 458.368 395.864C459.855 401.057 457.552 406.547 453.319 409.916C434.929 424.572 407.363 430.926 407.363 430.926C349.276 443.452 306.958 431.051 277.914 413.496C234.242 387.101 207.694 338.852 209.22 287.847C211.37 216.284 269.659 175.933 269.659 175.933C343.603 122.385 427.75 173.38 427.75 173.38C491.5 219.278 486.394 298.328 486.394 298.328L486.413 298.338Z" fill="white"/>
<path d="M73.3301 117.299L348.719 0L626.661 117.299L496.616 178.496L478.764 163.197C478.764 163.197 504.266 114.745 427.769 99.4461C427.769 99.4461 341.069 81.5936 282.425 96.893C282.425 96.893 208.481 107.096 218.674 163.187L205.928 178.487L73.3301 117.299Z" fill="white"/>
<path d="M119.142 136.955L119.228 239.694C119.228 239.694 98.8323 280.495 101.376 339.14C101.376 339.14 124.325 349.342 144.721 339.14C144.721 339.14 139.624 252.44 129.421 239.694V142.388L119.142 136.955Z" fill="white"/>
<path d="M474.291 344.62L506.819 346.79L502.519 374.768C502.126 377.312 499.275 378.636 497.096 377.264C490.262 372.964 477.564 363.567 470.855 349.794C469.646 347.317 471.556 344.438 474.31 344.63L474.291 344.62Z" fill="white"/>
<path d="M343.622 168.293C241.623 175.943 236.526 277.942 236.526 277.942H460.921C458.368 165.75 343.622 168.293 343.622 168.293ZM273.066 260.09C273.066 260.09 276.503 191.31 345.283 186.146C345.283 186.146 422.663 184.428 424.381 260.09H273.066Z" fill="white"/>
</svg>
