<svg width="20" height="20" viewBox="0 0 20 20" fill="none" xmlns="http://www.w3.org/2000/svg">
<path d="M15.7194 19.7857H3.58093C2.39343 19.782 1.4323 18.8209 1.42859 17.6334V16.6834C1.42859 14.3603 2.40457 12.1449 4.12273 10.5826C4.83894 9.93317 5.90398 9.84411 6.71667 10.3673C7.56648 10.9129 8.57957 11.2023 9.65203 11.2023C10.7245 11.2023 11.7376 10.9129 12.5874 10.3673C13.4001 9.84411 14.4651 9.93317 15.1813 10.5826C16.8995 12.1449 17.8792 14.3603 17.8755 16.6834V17.6334C17.8718 18.8246 16.9069 19.7857 15.7194 19.7857ZM5.55886 10.7681C5.21003 10.7681 4.87605 10.898 4.62 11.1318C3.05769 12.5531 2.16707 14.5718 2.16707 16.6834V17.6334C2.17078 18.4127 2.79792 19.0398 3.57722 19.0435H15.7157C16.495 19.0435 17.1259 18.4127 17.1259 17.6334V16.6834C17.1259 14.5718 16.2352 12.5568 14.6729 11.1318C14.2053 10.7088 13.5114 10.6494 12.9807 10.9908C12.0122 11.6142 10.8581 11.9445 9.6446 11.9445C8.43113 11.9445 7.27703 11.6142 6.30847 10.9908C6.08953 10.8461 5.82605 10.7681 5.55886 10.7681Z" fill="#96949C"/>
<path d="M9.65198 10.3599C7.00979 10.3562 4.86858 8.21494 4.86487 5.57275C4.86487 2.93428 7.00979 0.785645 9.65198 0.785645C12.2942 0.789355 14.4354 2.93057 14.4391 5.57275C14.4354 8.21123 12.2905 10.3599 9.65198 10.3599ZM9.65198 1.53154C7.41799 1.53154 5.60706 3.34248 5.60706 5.57646C5.60706 7.81045 7.41799 9.62139 9.65198 9.62139C11.886 9.62139 13.6969 7.81045 13.6969 5.57646C13.6932 3.34248 11.886 1.53154 9.65198 1.53154Z" fill="#96949C"/>
</svg>
